<svg id="Layer_1" data-name="Layer 1" xmlns="http://www.w3.org/2000/svg" viewBox="0 0 222.02 37.64"><defs><style>.cls-1{fill:#58c2ad;}.cls-2{fill:#fff;}.cls-3{fill:#4b628b;}</style></defs><circle class="cls-1" cx="20.76" cy="5.14" r="5.14"/><circle class="cls-2" cx="5.14" cy="5.14" r="5.14"/><path class="cls-3" d="M0,13.22H10.28a0,0,0,0,1,0,0V37a0,0,0,0,1,0,0h0A10.28,10.28,0,0,1,0,26.74V13.22A0,0,0,0,1,0,13.22Z"/><path class="cls-3" d="M210.48,425.69h-1.62a10.29,10.29,0,0,1-10.29-10.29h11.91a5.15,5.15,0,0,1,0,10.29Z" transform="translate(-186.99 -402.18)"/><path class="cls-2" d="M239.44,439.2V416.28H245V439.2Z" transform="translate(-186.99 -402.18)"/><path class="cls-2" d="M266,421V439.2h-5.54V421H254v-4.73H272.5V421Z" transform="translate(-186.99 -402.18)"/><path class="cls-2" d="M300.23,434.33a8.24,8.24,0,0,1-2,2.92,9.26,9.26,0,0,1-3.13,1.89,12.52,12.52,0,0,1-8.14,0,9,9,0,0,1-3.08-1.89,8.26,8.26,0,0,1-1.94-2.92,10.12,10.12,0,0,1-.68-3.77V416.28h5.51V430.1a6.51,6.51,0,0,0,.24,1.79,4.57,4.57,0,0,0,.74,1.5,3.58,3.58,0,0,0,1.33,1.05,5.27,5.27,0,0,0,4,0,3.65,3.65,0,0,0,1.35-1.05,4.21,4.21,0,0,0,.74-1.5,6.91,6.91,0,0,0,.23-1.79V416.28h5.54v14.28A9.93,9.93,0,0,1,300.23,434.33Z" transform="translate(-186.99 -402.18)"/><path class="cls-2" d="M324.14,439.2l-5-9.1h-1.89v9.1h-5.41V416.28h8.74a15.07,15.07,0,0,1,3.23.34,8.45,8.45,0,0,1,2.81,1.15,5.93,5.93,0,0,1,2,2.14,6.6,6.6,0,0,1,.75,3.3,6.12,6.12,0,0,1-1.26,3.92,7,7,0,0,1-3.5,2.26l6,9.81Zm-.22-15.89a2.18,2.18,0,0,0-1.22-2.09,3.81,3.81,0,0,0-1.21-.38,9.51,9.51,0,0,0-1.28-.09h-3v5.34h2.63a9.65,9.65,0,0,0,1.4-.11,4.4,4.4,0,0,0,1.3-.41,2.43,2.43,0,0,0,1-.84A2.48,2.48,0,0,0,323.92,423.31Z" transform="translate(-186.99 -402.18)"/><path class="cls-2" d="M339.81,439.2V416.28h5.57V439.2Z" transform="translate(-186.99 -402.18)"/><path class="cls-2" d="M371.16,439.2l-9.23-15h-.1l.13,15h-5.37V416.28h6.31l9.2,15h.1l-.13-15h5.37V439.2Z" transform="translate(-186.99 -402.18)"/><path class="cls-2" d="M405.08,439.24a21,21,0,0,1-4.91.55,14.14,14.14,0,0,1-5.07-.88,11.62,11.62,0,0,1-4-2.46,11.3,11.3,0,0,1-2.61-3.8,12.68,12.68,0,0,1-.93-4.94,12.51,12.51,0,0,1,.95-5,11.18,11.18,0,0,1,2.64-3.8,11.6,11.6,0,0,1,3.95-2.41,13.73,13.73,0,0,1,4.89-.85,15,15,0,0,1,5.05.83,10.36,10.36,0,0,1,3.79,2.22l-3.5,4a6,6,0,0,0-2.13-1.54,7.27,7.27,0,0,0-3-.6,6.58,6.58,0,0,0-2.68.54,6.3,6.3,0,0,0-2.14,1.49,6.87,6.87,0,0,0-1.41,2.26,8.08,8.08,0,0,0-.5,2.87,9,9,0,0,0,.45,2.91,6.05,6.05,0,0,0,3.55,3.78,8,8,0,0,0,3,.53,10.92,10.92,0,0,0,1.85-.15,6.47,6.47,0,0,0,1.62-.47v-4.17h-4.37v-4.47H409v12.14A17.83,17.83,0,0,1,405.08,439.24Z" transform="translate(-186.99 -402.18)"/></svg>